<mxfile host="Electron" modified="2024-03-12T14:48:03.429Z" agent="Mozilla/5.0 (X11; Linux x86_64) AppleWebKit/537.36 (KHTML, like Gecko) draw.io/24.0.4 Chrome/120.0.6099.109 Electron/28.1.0 Safari/537.36" etag="yxWWdJB1mt651i4yaZLJ" version="24.0.4" type="device">
  <diagram name="Page-1" id="xD801_ucFq414uZnRlKG">
    <mxGraphModel dx="1762" dy="1737" grid="0" gridSize="10" guides="1" tooltips="1" connect="1" arrows="1" fold="1" page="1" pageScale="1" pageWidth="1100" pageHeight="850" math="0" shadow="0">
      <root>
        <mxCell id="0" />
        <mxCell id="1" parent="0" />
        <mxCell id="5cUxGQwEymCMh7XVlLyC-59" value="PARTICIPANTE" style="whiteSpace=wrap;html=1;align=center;" parent="1" vertex="1">
          <mxGeometry x="489" y="458" width="100" height="40" as="geometry" />
        </mxCell>
        <mxCell id="5cUxGQwEymCMh7XVlLyC-61" value="" style="verticalLabelPosition=bottom;verticalAlign=top;html=1;shape=mxgraph.basic.acute_triangle;dx=0.5;rotation=-180;" parent="1" vertex="1">
          <mxGeometry x="489" y="558" width="100" height="70" as="geometry" />
        </mxCell>
        <mxCell id="5cUxGQwEymCMh7XVlLyC-62" value="JUGADOR" style="whiteSpace=wrap;html=1;align=center;" parent="1" vertex="1">
          <mxGeometry x="419" y="688" width="100" height="40" as="geometry" />
        </mxCell>
        <mxCell id="5cUxGQwEymCMh7XVlLyC-63" value="ARBITRO" style="whiteSpace=wrap;html=1;align=center;" parent="1" vertex="1">
          <mxGeometry x="559" y="688" width="100" height="40" as="geometry" />
        </mxCell>
        <mxCell id="5cUxGQwEymCMh7XVlLyC-64" value="" style="endArrow=none;html=1;rounded=0;entryX=0.5;entryY=1;entryDx=0;entryDy=0;exitX=0.5;exitY=1;exitDx=0;exitDy=0;exitPerimeter=0;" parent="1" source="5cUxGQwEymCMh7XVlLyC-67" target="5cUxGQwEymCMh7XVlLyC-59" edge="1">
          <mxGeometry width="50" height="50" relative="1" as="geometry">
            <mxPoint x="545" y="598" as="sourcePoint" />
            <mxPoint x="595" y="548" as="targetPoint" />
          </mxGeometry>
        </mxCell>
        <mxCell id="5cUxGQwEymCMh7XVlLyC-65" value="" style="endArrow=none;html=1;rounded=0;entryX=0;entryY=0;entryDx=75;entryDy=35;exitX=0.5;exitY=0;exitDx=0;exitDy=0;entryPerimeter=0;" parent="1" source="5cUxGQwEymCMh7XVlLyC-62" target="5cUxGQwEymCMh7XVlLyC-61" edge="1">
          <mxGeometry width="50" height="50" relative="1" as="geometry">
            <mxPoint x="549" y="568" as="sourcePoint" />
            <mxPoint x="549" y="508" as="targetPoint" />
          </mxGeometry>
        </mxCell>
        <mxCell id="5cUxGQwEymCMh7XVlLyC-66" value="" style="endArrow=none;html=1;rounded=0;exitX=0.5;exitY=0;exitDx=0;exitDy=0;entryX=0;entryY=0;entryDx=25;entryDy=35;entryPerimeter=0;" parent="1" source="5cUxGQwEymCMh7XVlLyC-63" target="5cUxGQwEymCMh7XVlLyC-61" edge="1">
          <mxGeometry width="50" height="50" relative="1" as="geometry">
            <mxPoint x="479" y="698" as="sourcePoint" />
            <mxPoint x="592" y="595" as="targetPoint" />
          </mxGeometry>
        </mxCell>
        <mxCell id="5cUxGQwEymCMh7XVlLyC-68" value="" style="endArrow=none;html=1;rounded=0;entryX=0.5;entryY=1;entryDx=0;entryDy=0;exitX=0.5;exitY=1;exitDx=0;exitDy=0;exitPerimeter=0;" parent="1" source="5cUxGQwEymCMh7XVlLyC-61" target="5cUxGQwEymCMh7XVlLyC-67" edge="1">
          <mxGeometry width="50" height="50" relative="1" as="geometry">
            <mxPoint x="539" y="558" as="sourcePoint" />
            <mxPoint x="539" y="498" as="targetPoint" />
          </mxGeometry>
        </mxCell>
        <mxCell id="5cUxGQwEymCMh7XVlLyC-67" value="" style="ellipse;whiteSpace=wrap;html=1;aspect=fixed;" parent="1" vertex="1">
          <mxGeometry x="529" y="518" width="20" height="20" as="geometry" />
        </mxCell>
        <mxCell id="5cUxGQwEymCMh7XVlLyC-85" value="enviar" style="shape=rhombus;perimeter=rhombusPerimeter;whiteSpace=wrap;html=1;align=center;" parent="1" vertex="1">
          <mxGeometry x="709" y="448" width="120" height="60" as="geometry" />
        </mxCell>
        <mxCell id="5cUxGQwEymCMh7XVlLyC-87" value="PAIS" style="whiteSpace=wrap;html=1;align=center;" parent="1" vertex="1">
          <mxGeometry x="949" y="458" width="100" height="40" as="geometry" />
        </mxCell>
        <mxCell id="5cUxGQwEymCMh7XVlLyC-89" value="es representado" style="shape=rhombus;perimeter=rhombusPerimeter;whiteSpace=wrap;html=1;align=center;" parent="1" vertex="1">
          <mxGeometry x="939" y="558" width="120" height="60" as="geometry" />
        </mxCell>
        <mxCell id="5cUxGQwEymCMh7XVlLyC-90" value="" style="endArrow=classic;html=1;rounded=0;exitX=0;exitY=0;exitDx=0;exitDy=0;entryX=0.5;entryY=1;entryDx=0;entryDy=0;" parent="1" source="5cUxGQwEymCMh7XVlLyC-89" edge="1">
          <mxGeometry width="50" height="50" relative="1" as="geometry">
            <mxPoint x="969" y="558" as="sourcePoint" />
            <mxPoint x="969" y="498" as="targetPoint" />
          </mxGeometry>
        </mxCell>
        <mxCell id="5cUxGQwEymCMh7XVlLyC-91" value="( 1, N )" style="text;html=1;align=center;verticalAlign=middle;resizable=0;points=[];autosize=1;strokeColor=none;fillColor=none;" parent="1" vertex="1">
          <mxGeometry x="914" y="515" width="55" height="26" as="geometry" />
        </mxCell>
        <mxCell id="5cUxGQwEymCMh7XVlLyC-92" value="( 1, 1 )" style="text;html=1;align=center;verticalAlign=middle;resizable=0;points=[];autosize=1;strokeColor=none;fillColor=none;" parent="1" vertex="1">
          <mxGeometry x="1029" y="515" width="53" height="26" as="geometry" />
        </mxCell>
        <mxCell id="5cUxGQwEymCMh7XVlLyC-93" value="1 : N" style="text;html=1;align=center;verticalAlign=middle;resizable=0;points=[];autosize=1;strokeColor=none;fillColor=none;" parent="1" vertex="1">
          <mxGeometry x="977.5" y="618" width="43" height="26" as="geometry" />
        </mxCell>
        <mxCell id="5cUxGQwEymCMh7XVlLyC-97" value="" style="endArrow=classic;html=1;rounded=0;entryX=1;entryY=0.5;entryDx=0;entryDy=0;exitX=0;exitY=0.5;exitDx=0;exitDy=0;" parent="1" source="5cUxGQwEymCMh7XVlLyC-85" target="5cUxGQwEymCMh7XVlLyC-59" edge="1">
          <mxGeometry width="50" height="50" relative="1" as="geometry">
            <mxPoint x="720" y="579" as="sourcePoint" />
            <mxPoint x="770" y="529" as="targetPoint" />
          </mxGeometry>
        </mxCell>
        <mxCell id="5cUxGQwEymCMh7XVlLyC-99" value="( 0, N )" style="text;html=1;align=center;verticalAlign=middle;resizable=0;points=[];autosize=1;strokeColor=none;fillColor=none;" parent="1" vertex="1">
          <mxGeometry x="589" y="452" width="55" height="26" as="geometry" />
        </mxCell>
        <mxCell id="5cUxGQwEymCMh7XVlLyC-100" value="( 1, 1 )" style="text;html=1;align=center;verticalAlign=middle;resizable=0;points=[];autosize=1;strokeColor=none;fillColor=none;" parent="1" vertex="1">
          <mxGeometry x="896" y="452" width="53" height="26" as="geometry" />
        </mxCell>
        <mxCell id="5cUxGQwEymCMh7XVlLyC-101" value="" style="endArrow=none;html=1;rounded=0;exitX=1;exitY=0.5;exitDx=0;exitDy=0;entryX=0;entryY=0.5;entryDx=0;entryDy=0;" parent="1" source="5cUxGQwEymCMh7XVlLyC-85" target="5cUxGQwEymCMh7XVlLyC-87" edge="1">
          <mxGeometry width="50" height="50" relative="1" as="geometry">
            <mxPoint x="844" y="433" as="sourcePoint" />
            <mxPoint x="894" y="383" as="targetPoint" />
          </mxGeometry>
        </mxCell>
        <mxCell id="5cUxGQwEymCMh7XVlLyC-102" value="1 : N" style="text;html=1;align=center;verticalAlign=middle;resizable=0;points=[];autosize=1;strokeColor=none;fillColor=none;" parent="1" vertex="1">
          <mxGeometry x="747.5" y="422" width="43" height="26" as="geometry" />
        </mxCell>
        <mxCell id="5cUxGQwEymCMh7XVlLyC-122" value="jugar" style="shape=rhombus;perimeter=rhombusPerimeter;whiteSpace=wrap;html=1;align=center;" parent="1" vertex="1">
          <mxGeometry x="409" y="788" width="120" height="60" as="geometry" />
        </mxCell>
        <mxCell id="5cUxGQwEymCMh7XVlLyC-124" value="PARTIDA" style="whiteSpace=wrap;html=1;align=center;" parent="1" vertex="1">
          <mxGeometry x="489" y="908" width="100" height="40" as="geometry" />
        </mxCell>
        <mxCell id="5cUxGQwEymCMh7XVlLyC-125" value="" style="endArrow=classic;html=1;rounded=0;exitX=0.5;exitY=1;exitDx=0;exitDy=0;entryX=0;entryY=0;entryDx=0;entryDy=0;" parent="1" source="5cUxGQwEymCMh7XVlLyC-122" target="5cUxGQwEymCMh7XVlLyC-124" edge="1">
          <mxGeometry width="50" height="50" relative="1" as="geometry">
            <mxPoint x="575" y="794" as="sourcePoint" />
            <mxPoint x="625" y="744" as="targetPoint" />
          </mxGeometry>
        </mxCell>
        <mxCell id="5cUxGQwEymCMh7XVlLyC-126" value="" style="endArrow=none;html=1;rounded=0;entryX=0.5;entryY=1;entryDx=0;entryDy=0;exitX=0.5;exitY=0;exitDx=0;exitDy=0;" parent="1" source="5cUxGQwEymCMh7XVlLyC-122" target="5cUxGQwEymCMh7XVlLyC-62" edge="1">
          <mxGeometry width="50" height="50" relative="1" as="geometry">
            <mxPoint x="575" y="794" as="sourcePoint" />
            <mxPoint x="625" y="744" as="targetPoint" />
          </mxGeometry>
        </mxCell>
        <mxCell id="5cUxGQwEymCMh7XVlLyC-128" value="arbitrar" style="shape=rhombus;perimeter=rhombusPerimeter;whiteSpace=wrap;html=1;align=center;" parent="1" vertex="1">
          <mxGeometry x="549" y="788" width="120" height="60" as="geometry" />
        </mxCell>
        <mxCell id="5cUxGQwEymCMh7XVlLyC-129" value="" style="endArrow=none;html=1;rounded=0;exitX=0.5;exitY=0;exitDx=0;exitDy=0;entryX=0.5;entryY=1;entryDx=0;entryDy=0;" parent="1" source="5cUxGQwEymCMh7XVlLyC-128" target="5cUxGQwEymCMh7XVlLyC-63" edge="1">
          <mxGeometry width="50" height="50" relative="1" as="geometry">
            <mxPoint x="685" y="805" as="sourcePoint" />
            <mxPoint x="735" y="755" as="targetPoint" />
          </mxGeometry>
        </mxCell>
        <mxCell id="5cUxGQwEymCMh7XVlLyC-130" value="" style="endArrow=classic;html=1;rounded=0;exitX=0.5;exitY=1;exitDx=0;exitDy=0;entryX=1;entryY=0;entryDx=0;entryDy=0;" parent="1" source="5cUxGQwEymCMh7XVlLyC-128" target="5cUxGQwEymCMh7XVlLyC-124" edge="1">
          <mxGeometry width="50" height="50" relative="1" as="geometry">
            <mxPoint x="685" y="805" as="sourcePoint" />
            <mxPoint x="735" y="755" as="targetPoint" />
          </mxGeometry>
        </mxCell>
        <mxCell id="5cUxGQwEymCMh7XVlLyC-162" value="( 1, N )" style="text;html=1;align=center;verticalAlign=middle;resizable=0;points=[];autosize=1;strokeColor=none;fillColor=none;" parent="1" vertex="1">
          <mxGeometry x="434" y="882" width="55" height="26" as="geometry" />
        </mxCell>
        <mxCell id="5cUxGQwEymCMh7XVlLyC-163" value="( 1, N )" style="text;html=1;align=center;verticalAlign=middle;resizable=0;points=[];autosize=1;strokeColor=none;fillColor=none;" parent="1" vertex="1">
          <mxGeometry x="589" y="882" width="55" height="26" as="geometry" />
        </mxCell>
        <mxCell id="5cUxGQwEymCMh7XVlLyC-164" value="( 1, 1 )" style="text;html=1;align=center;verticalAlign=middle;resizable=0;points=[];autosize=1;strokeColor=none;fillColor=none;" parent="1" vertex="1">
          <mxGeometry x="609" y="728" width="53" height="26" as="geometry" />
        </mxCell>
        <mxCell id="5cUxGQwEymCMh7XVlLyC-165" value="( 2, 2 )" style="text;html=1;align=center;verticalAlign=middle;resizable=0;points=[];autosize=1;strokeColor=none;fillColor=none;" parent="1" vertex="1">
          <mxGeometry x="416" y="728" width="53" height="26" as="geometry" />
        </mxCell>
        <mxCell id="5cUxGQwEymCMh7XVlLyC-166" value="N : M" style="text;html=1;align=center;verticalAlign=middle;resizable=0;points=[];autosize=1;strokeColor=none;fillColor=none;" parent="1" vertex="1">
          <mxGeometry x="362" y="805" width="47" height="26" as="geometry" />
        </mxCell>
        <mxCell id="5cUxGQwEymCMh7XVlLyC-167" value="1 : N" style="text;html=1;align=center;verticalAlign=middle;resizable=0;points=[];autosize=1;strokeColor=none;fillColor=none;" parent="1" vertex="1">
          <mxGeometry x="669" y="805" width="43" height="26" as="geometry" />
        </mxCell>
        <mxCell id="5cUxGQwEymCMh7XVlLyC-218" value="alojar" style="shape=rhombus;perimeter=rhombusPerimeter;whiteSpace=wrap;html=1;align=center;" parent="1" vertex="1">
          <mxGeometry x="249" y="448" width="120" height="60" as="geometry" />
        </mxCell>
        <mxCell id="5cUxGQwEymCMh7XVlLyC-220" value="HOTEL" style="whiteSpace=wrap;html=1;align=center;" parent="1" vertex="1">
          <mxGeometry x="29" y="458" width="100" height="40" as="geometry" />
        </mxCell>
        <mxCell id="5cUxGQwEymCMh7XVlLyC-221" value="" style="endArrow=classic;html=1;rounded=0;exitX=1;exitY=0.5;exitDx=0;exitDy=0;entryX=0;entryY=0.5;entryDx=0;entryDy=0;" parent="1" source="5cUxGQwEymCMh7XVlLyC-218" target="5cUxGQwEymCMh7XVlLyC-59" edge="1">
          <mxGeometry width="50" height="50" relative="1" as="geometry">
            <mxPoint x="329" y="597" as="sourcePoint" />
            <mxPoint x="379" y="547" as="targetPoint" />
          </mxGeometry>
        </mxCell>
        <mxCell id="5cUxGQwEymCMh7XVlLyC-222" value="" style="endArrow=classic;html=1;rounded=0;entryX=1;entryY=0.5;entryDx=0;entryDy=0;exitX=0;exitY=0.5;exitDx=0;exitDy=0;" parent="1" source="5cUxGQwEymCMh7XVlLyC-218" target="5cUxGQwEymCMh7XVlLyC-220" edge="1">
          <mxGeometry width="50" height="50" relative="1" as="geometry">
            <mxPoint x="329" y="597" as="sourcePoint" />
            <mxPoint x="379" y="547" as="targetPoint" />
          </mxGeometry>
        </mxCell>
        <mxCell id="5cUxGQwEymCMh7XVlLyC-223" value="( 0, N )" style="text;html=1;align=center;verticalAlign=middle;resizable=0;points=[];autosize=1;strokeColor=none;fillColor=none;" parent="1" vertex="1">
          <mxGeometry x="434" y="452" width="55" height="26" as="geometry" />
        </mxCell>
        <mxCell id="5cUxGQwEymCMh7XVlLyC-224" value="( 1, N )" style="text;html=1;align=center;verticalAlign=middle;resizable=0;points=[];autosize=1;strokeColor=none;fillColor=none;" parent="1" vertex="1">
          <mxGeometry x="129" y="452" width="55" height="26" as="geometry" />
        </mxCell>
        <mxCell id="5cUxGQwEymCMh7XVlLyC-225" value="N : M" style="text;html=1;align=center;verticalAlign=middle;resizable=0;points=[];autosize=1;strokeColor=none;fillColor=none;" parent="1" vertex="1">
          <mxGeometry x="285.5" y="422" width="47" height="26" as="geometry" />
        </mxCell>
        <mxCell id="5cUxGQwEymCMh7XVlLyC-282" value="disponer" style="shape=rhombus;perimeter=rhombusPerimeter;whiteSpace=wrap;html=1;align=center;" parent="1" vertex="1">
          <mxGeometry x="19" y="558" width="120" height="60" as="geometry" />
        </mxCell>
        <mxCell id="5cUxGQwEymCMh7XVlLyC-287" value="celebrar" style="shape=rhombus;perimeter=rhombusPerimeter;whiteSpace=wrap;html=1;align=center;" parent="1" vertex="1">
          <mxGeometry x="19" y="778" width="120" height="60" as="geometry" />
        </mxCell>
        <mxCell id="5cUxGQwEymCMh7XVlLyC-288" value="" style="endArrow=classic;html=1;rounded=0;exitX=0.5;exitY=1;exitDx=0;exitDy=0;entryX=0.5;entryY=0;entryDx=0;entryDy=0;" parent="1" source="5cUxGQwEymCMh7XVlLyC-282" target="5cUxGQwEymCMh7XVlLyC-300" edge="1">
          <mxGeometry width="50" height="50" relative="1" as="geometry">
            <mxPoint x="216" y="701" as="sourcePoint" />
            <mxPoint x="79" y="678" as="targetPoint" />
          </mxGeometry>
        </mxCell>
        <mxCell id="5cUxGQwEymCMh7XVlLyC-289" value="" style="endArrow=none;html=1;rounded=0;entryX=0.5;entryY=1;entryDx=0;entryDy=0;exitX=0.5;exitY=0;exitDx=0;exitDy=0;" parent="1" source="5cUxGQwEymCMh7XVlLyC-282" target="5cUxGQwEymCMh7XVlLyC-220" edge="1">
          <mxGeometry width="50" height="50" relative="1" as="geometry">
            <mxPoint x="216" y="701" as="sourcePoint" />
            <mxPoint x="266" y="651" as="targetPoint" />
          </mxGeometry>
        </mxCell>
        <mxCell id="5cUxGQwEymCMh7XVlLyC-290" value="( 1, 1 )" style="text;html=1;align=center;verticalAlign=middle;resizable=0;points=[];autosize=1;strokeColor=none;fillColor=none;" parent="1" vertex="1">
          <mxGeometry x="26" y="498" width="53" height="26" as="geometry" />
        </mxCell>
        <mxCell id="5cUxGQwEymCMh7XVlLyC-291" value="( 0, N )" style="text;html=1;align=center;verticalAlign=middle;resizable=0;points=[];autosize=1;strokeColor=none;fillColor=none;" parent="1" vertex="1">
          <mxGeometry x="24" y="652" width="55" height="26" as="geometry" />
        </mxCell>
        <mxCell id="5cUxGQwEymCMh7XVlLyC-292" value="1 : N" style="text;html=1;align=center;verticalAlign=middle;resizable=0;points=[];autosize=1;strokeColor=none;fillColor=none;" parent="1" vertex="1">
          <mxGeometry x="139" y="575" width="43" height="26" as="geometry" />
        </mxCell>
        <mxCell id="5cUxGQwEymCMh7XVlLyC-293" value="" style="endArrow=classic;html=1;rounded=0;exitX=0.5;exitY=1;exitDx=0;exitDy=0;entryX=0;entryY=0.5;entryDx=0;entryDy=0;" parent="1" source="5cUxGQwEymCMh7XVlLyC-287" target="5cUxGQwEymCMh7XVlLyC-124" edge="1">
          <mxGeometry width="50" height="50" relative="1" as="geometry">
            <mxPoint x="325" y="808" as="sourcePoint" />
            <mxPoint x="478" y="923" as="targetPoint" />
            <Array as="points">
              <mxPoint x="79" y="928" />
            </Array>
          </mxGeometry>
        </mxCell>
        <mxCell id="5cUxGQwEymCMh7XVlLyC-296" value="" style="endArrow=none;html=1;rounded=0;exitX=0.5;exitY=0;exitDx=0;exitDy=0;entryX=0.5;entryY=1;entryDx=0;entryDy=0;" parent="1" source="5cUxGQwEymCMh7XVlLyC-287" target="5cUxGQwEymCMh7XVlLyC-300" edge="1">
          <mxGeometry width="50" height="50" relative="1" as="geometry">
            <mxPoint x="169" y="776" as="sourcePoint" />
            <mxPoint x="79" y="718" as="targetPoint" />
          </mxGeometry>
        </mxCell>
        <mxCell id="5cUxGQwEymCMh7XVlLyC-297" value="( 1, 1 )" style="text;html=1;align=center;verticalAlign=middle;resizable=0;points=[];autosize=1;strokeColor=none;fillColor=none;" parent="1" vertex="1">
          <mxGeometry x="26" y="718" width="53" height="26" as="geometry" />
        </mxCell>
        <mxCell id="5cUxGQwEymCMh7XVlLyC-298" value="( 0, N )" style="text;html=1;align=center;verticalAlign=middle;resizable=0;points=[];autosize=1;strokeColor=none;fillColor=none;" parent="1" vertex="1">
          <mxGeometry x="434" y="928" width="55" height="26" as="geometry" />
        </mxCell>
        <mxCell id="5cUxGQwEymCMh7XVlLyC-299" value="1 : N" style="text;html=1;align=center;verticalAlign=middle;resizable=0;points=[];autosize=1;strokeColor=none;fillColor=none;" parent="1" vertex="1">
          <mxGeometry x="139" y="795" width="43" height="26" as="geometry" />
        </mxCell>
        <mxCell id="5cUxGQwEymCMh7XVlLyC-300" value="SALA" style="shape=ext;margin=3;double=1;whiteSpace=wrap;html=1;align=center;" parent="1" vertex="1">
          <mxGeometry x="29" y="678" width="100" height="40" as="geometry" />
        </mxCell>
        <mxCell id="5cUxGQwEymCMh7XVlLyC-302" value="constar" style="shape=rhombus;perimeter=rhombusPerimeter;whiteSpace=wrap;html=1;align=center;" parent="1" vertex="1">
          <mxGeometry x="709" y="898" width="120" height="60" as="geometry" />
        </mxCell>
        <mxCell id="5cUxGQwEymCMh7XVlLyC-305" value="MOVIMIENTO" style="shape=ext;margin=3;double=1;whiteSpace=wrap;html=1;align=center;" parent="1" vertex="1">
          <mxGeometry x="949" y="908" width="100" height="40" as="geometry" />
        </mxCell>
        <mxCell id="5cUxGQwEymCMh7XVlLyC-307" value="" style="endArrow=classic;html=1;rounded=0;exitX=1;exitY=0.5;exitDx=0;exitDy=0;entryX=0;entryY=0.5;entryDx=0;entryDy=0;" parent="1" source="5cUxGQwEymCMh7XVlLyC-302" target="5cUxGQwEymCMh7XVlLyC-305" edge="1">
          <mxGeometry width="50" height="50" relative="1" as="geometry">
            <mxPoint x="803" y="948" as="sourcePoint" />
            <mxPoint x="853" y="898" as="targetPoint" />
          </mxGeometry>
        </mxCell>
        <mxCell id="5cUxGQwEymCMh7XVlLyC-308" value="" style="endArrow=none;html=1;rounded=0;exitX=1;exitY=0.5;exitDx=0;exitDy=0;entryX=0;entryY=0.5;entryDx=0;entryDy=0;" parent="1" source="5cUxGQwEymCMh7XVlLyC-124" target="5cUxGQwEymCMh7XVlLyC-302" edge="1">
          <mxGeometry width="50" height="50" relative="1" as="geometry">
            <mxPoint x="803" y="948" as="sourcePoint" />
            <mxPoint x="853" y="898" as="targetPoint" />
          </mxGeometry>
        </mxCell>
        <mxCell id="5cUxGQwEymCMh7XVlLyC-309" value="( 0, N )" style="text;html=1;align=center;verticalAlign=middle;resizable=0;points=[];autosize=1;strokeColor=none;fillColor=none;" parent="1" vertex="1">
          <mxGeometry x="894" y="928" width="55" height="26" as="geometry" />
        </mxCell>
        <mxCell id="5cUxGQwEymCMh7XVlLyC-311" value="( 1, 1 )" style="text;html=1;align=center;verticalAlign=middle;resizable=0;points=[];autosize=1;strokeColor=none;fillColor=none;" parent="1" vertex="1">
          <mxGeometry x="589" y="928" width="53" height="26" as="geometry" />
        </mxCell>
        <mxCell id="5cUxGQwEymCMh7XVlLyC-312" value="1 : N" style="text;html=1;align=center;verticalAlign=middle;resizable=0;points=[];autosize=1;strokeColor=none;fillColor=none;" parent="1" vertex="1">
          <mxGeometry x="747.5" y="872" width="43" height="26" as="geometry" />
        </mxCell>
        <mxCell id="-Ma8yGiCkcmnBZ08pdYG-1" value="Participantes" style="shape=table;startSize=30;container=1;collapsible=1;childLayout=tableLayout;fixedRows=1;rowLines=0;fontStyle=1;align=center;resizeLast=1;html=1;" parent="1" vertex="1">
          <mxGeometry x="580" y="-108" width="180" height="210" as="geometry" />
        </mxCell>
        <mxCell id="-Ma8yGiCkcmnBZ08pdYG-2" value="" style="shape=tableRow;horizontal=0;startSize=0;swimlaneHead=0;swimlaneBody=0;fillColor=none;collapsible=0;dropTarget=0;points=[[0,0.5],[1,0.5]];portConstraint=eastwest;top=0;left=0;right=0;bottom=1;" parent="-Ma8yGiCkcmnBZ08pdYG-1" vertex="1">
          <mxGeometry y="30" width="180" height="30" as="geometry" />
        </mxCell>
        <mxCell id="-Ma8yGiCkcmnBZ08pdYG-3" value="PK" style="shape=partialRectangle;connectable=0;fillColor=none;top=0;left=0;bottom=0;right=0;fontStyle=1;overflow=hidden;whiteSpace=wrap;html=1;" parent="-Ma8yGiCkcmnBZ08pdYG-2" vertex="1">
          <mxGeometry width="30" height="30" as="geometry">
            <mxRectangle width="30" height="30" as="alternateBounds" />
          </mxGeometry>
        </mxCell>
        <mxCell id="-Ma8yGiCkcmnBZ08pdYG-4" value="numero_asociado" style="shape=partialRectangle;connectable=0;fillColor=none;top=0;left=0;bottom=0;right=0;align=left;spacingLeft=6;fontStyle=5;overflow=hidden;whiteSpace=wrap;html=1;" parent="-Ma8yGiCkcmnBZ08pdYG-2" vertex="1">
          <mxGeometry x="30" width="150" height="30" as="geometry">
            <mxRectangle width="150" height="30" as="alternateBounds" />
          </mxGeometry>
        </mxCell>
        <mxCell id="-Ma8yGiCkcmnBZ08pdYG-5" value="" style="shape=tableRow;horizontal=0;startSize=0;swimlaneHead=0;swimlaneBody=0;fillColor=none;collapsible=0;dropTarget=0;points=[[0,0.5],[1,0.5]];portConstraint=eastwest;top=0;left=0;right=0;bottom=0;" parent="-Ma8yGiCkcmnBZ08pdYG-1" vertex="1">
          <mxGeometry y="60" width="180" height="30" as="geometry" />
        </mxCell>
        <mxCell id="-Ma8yGiCkcmnBZ08pdYG-6" value="FK" style="shape=partialRectangle;connectable=0;fillColor=none;top=0;left=0;bottom=0;right=0;fontStyle=0;overflow=hidden;whiteSpace=wrap;html=1;" parent="-Ma8yGiCkcmnBZ08pdYG-5" vertex="1">
          <mxGeometry width="30" height="30" as="geometry">
            <mxRectangle width="30" height="30" as="alternateBounds" />
          </mxGeometry>
        </mxCell>
        <mxCell id="-Ma8yGiCkcmnBZ08pdYG-7" value="codigo_pais" style="shape=partialRectangle;connectable=0;fillColor=none;top=0;left=0;bottom=0;right=0;align=left;spacingLeft=6;fontStyle=0;overflow=hidden;whiteSpace=wrap;html=1;" parent="-Ma8yGiCkcmnBZ08pdYG-5" vertex="1">
          <mxGeometry x="30" width="150" height="30" as="geometry">
            <mxRectangle width="150" height="30" as="alternateBounds" />
          </mxGeometry>
        </mxCell>
        <mxCell id="-Ma8yGiCkcmnBZ08pdYG-8" value="" style="shape=tableRow;horizontal=0;startSize=0;swimlaneHead=0;swimlaneBody=0;fillColor=none;collapsible=0;dropTarget=0;points=[[0,0.5],[1,0.5]];portConstraint=eastwest;top=0;left=0;right=0;bottom=0;" parent="-Ma8yGiCkcmnBZ08pdYG-1" vertex="1">
          <mxGeometry y="90" width="180" height="30" as="geometry" />
        </mxCell>
        <mxCell id="-Ma8yGiCkcmnBZ08pdYG-9" value="" style="shape=partialRectangle;connectable=0;fillColor=none;top=0;left=0;bottom=0;right=0;editable=1;overflow=hidden;whiteSpace=wrap;html=1;" parent="-Ma8yGiCkcmnBZ08pdYG-8" vertex="1">
          <mxGeometry width="30" height="30" as="geometry">
            <mxRectangle width="30" height="30" as="alternateBounds" />
          </mxGeometry>
        </mxCell>
        <mxCell id="-Ma8yGiCkcmnBZ08pdYG-10" value="nombre" style="shape=partialRectangle;connectable=0;fillColor=none;top=0;left=0;bottom=0;right=0;align=left;spacingLeft=6;overflow=hidden;whiteSpace=wrap;html=1;" parent="-Ma8yGiCkcmnBZ08pdYG-8" vertex="1">
          <mxGeometry x="30" width="150" height="30" as="geometry">
            <mxRectangle width="150" height="30" as="alternateBounds" />
          </mxGeometry>
        </mxCell>
        <mxCell id="-Ma8yGiCkcmnBZ08pdYG-11" value="" style="shape=tableRow;horizontal=0;startSize=0;swimlaneHead=0;swimlaneBody=0;fillColor=none;collapsible=0;dropTarget=0;points=[[0,0.5],[1,0.5]];portConstraint=eastwest;top=0;left=0;right=0;bottom=0;" parent="-Ma8yGiCkcmnBZ08pdYG-1" vertex="1">
          <mxGeometry y="120" width="180" height="30" as="geometry" />
        </mxCell>
        <mxCell id="-Ma8yGiCkcmnBZ08pdYG-12" value="" style="shape=partialRectangle;connectable=0;fillColor=none;top=0;left=0;bottom=0;right=0;editable=1;overflow=hidden;whiteSpace=wrap;html=1;" parent="-Ma8yGiCkcmnBZ08pdYG-11" vertex="1">
          <mxGeometry width="30" height="30" as="geometry">
            <mxRectangle width="30" height="30" as="alternateBounds" />
          </mxGeometry>
        </mxCell>
        <mxCell id="-Ma8yGiCkcmnBZ08pdYG-13" value="direccion" style="shape=partialRectangle;connectable=0;fillColor=none;top=0;left=0;bottom=0;right=0;align=left;spacingLeft=6;overflow=hidden;whiteSpace=wrap;html=1;" parent="-Ma8yGiCkcmnBZ08pdYG-11" vertex="1">
          <mxGeometry x="30" width="150" height="30" as="geometry">
            <mxRectangle width="150" height="30" as="alternateBounds" />
          </mxGeometry>
        </mxCell>
        <mxCell id="-Ma8yGiCkcmnBZ08pdYG-14" value="" style="shape=tableRow;horizontal=0;startSize=0;swimlaneHead=0;swimlaneBody=0;fillColor=none;collapsible=0;dropTarget=0;points=[[0,0.5],[1,0.5]];portConstraint=eastwest;top=0;left=0;right=0;bottom=0;" parent="-Ma8yGiCkcmnBZ08pdYG-1" vertex="1">
          <mxGeometry y="150" width="180" height="30" as="geometry" />
        </mxCell>
        <mxCell id="-Ma8yGiCkcmnBZ08pdYG-15" value="" style="shape=partialRectangle;connectable=0;fillColor=none;top=0;left=0;bottom=0;right=0;editable=1;overflow=hidden;whiteSpace=wrap;html=1;" parent="-Ma8yGiCkcmnBZ08pdYG-14" vertex="1">
          <mxGeometry width="30" height="30" as="geometry">
            <mxRectangle width="30" height="30" as="alternateBounds" />
          </mxGeometry>
        </mxCell>
        <mxCell id="-Ma8yGiCkcmnBZ08pdYG-16" value="telefono" style="shape=partialRectangle;connectable=0;fillColor=none;top=0;left=0;bottom=0;right=0;align=left;spacingLeft=6;overflow=hidden;whiteSpace=wrap;html=1;" parent="-Ma8yGiCkcmnBZ08pdYG-14" vertex="1">
          <mxGeometry x="30" width="150" height="30" as="geometry">
            <mxRectangle width="150" height="30" as="alternateBounds" />
          </mxGeometry>
        </mxCell>
        <mxCell id="-Ma8yGiCkcmnBZ08pdYG-17" value="" style="shape=tableRow;horizontal=0;startSize=0;swimlaneHead=0;swimlaneBody=0;fillColor=none;collapsible=0;dropTarget=0;points=[[0,0.5],[1,0.5]];portConstraint=eastwest;top=0;left=0;right=0;bottom=0;" parent="-Ma8yGiCkcmnBZ08pdYG-1" vertex="1">
          <mxGeometry y="180" width="180" height="30" as="geometry" />
        </mxCell>
        <mxCell id="-Ma8yGiCkcmnBZ08pdYG-18" value="" style="shape=partialRectangle;connectable=0;fillColor=none;top=0;left=0;bottom=0;right=0;editable=1;overflow=hidden;whiteSpace=wrap;html=1;" parent="-Ma8yGiCkcmnBZ08pdYG-17" vertex="1">
          <mxGeometry width="30" height="30" as="geometry">
            <mxRectangle width="30" height="30" as="alternateBounds" />
          </mxGeometry>
        </mxCell>
        <mxCell id="-Ma8yGiCkcmnBZ08pdYG-19" value="campeonatos_participado" style="shape=partialRectangle;connectable=0;fillColor=none;top=0;left=0;bottom=0;right=0;align=left;spacingLeft=6;overflow=hidden;whiteSpace=wrap;html=1;" parent="-Ma8yGiCkcmnBZ08pdYG-17" vertex="1">
          <mxGeometry x="30" width="150" height="30" as="geometry">
            <mxRectangle width="150" height="30" as="alternateBounds" />
          </mxGeometry>
        </mxCell>
        <mxCell id="-Ma8yGiCkcmnBZ08pdYG-20" value="Paises" style="shape=table;startSize=30;container=1;collapsible=1;childLayout=tableLayout;fixedRows=1;rowLines=0;fontStyle=1;align=center;resizeLast=1;html=1;" parent="1" vertex="1">
          <mxGeometry x="800" y="-108" width="180" height="150" as="geometry" />
        </mxCell>
        <mxCell id="-Ma8yGiCkcmnBZ08pdYG-21" value="" style="shape=tableRow;horizontal=0;startSize=0;swimlaneHead=0;swimlaneBody=0;fillColor=none;collapsible=0;dropTarget=0;points=[[0,0.5],[1,0.5]];portConstraint=eastwest;top=0;left=0;right=0;bottom=1;" parent="-Ma8yGiCkcmnBZ08pdYG-20" vertex="1">
          <mxGeometry y="30" width="180" height="30" as="geometry" />
        </mxCell>
        <mxCell id="-Ma8yGiCkcmnBZ08pdYG-22" value="PK" style="shape=partialRectangle;connectable=0;fillColor=none;top=0;left=0;bottom=0;right=0;fontStyle=1;overflow=hidden;whiteSpace=wrap;html=1;" parent="-Ma8yGiCkcmnBZ08pdYG-21" vertex="1">
          <mxGeometry width="30" height="30" as="geometry">
            <mxRectangle width="30" height="30" as="alternateBounds" />
          </mxGeometry>
        </mxCell>
        <mxCell id="-Ma8yGiCkcmnBZ08pdYG-23" value="codigo" style="shape=partialRectangle;connectable=0;fillColor=none;top=0;left=0;bottom=0;right=0;align=left;spacingLeft=6;fontStyle=5;overflow=hidden;whiteSpace=wrap;html=1;" parent="-Ma8yGiCkcmnBZ08pdYG-21" vertex="1">
          <mxGeometry x="30" width="150" height="30" as="geometry">
            <mxRectangle width="150" height="30" as="alternateBounds" />
          </mxGeometry>
        </mxCell>
        <mxCell id="-Ma8yGiCkcmnBZ08pdYG-24" value="" style="shape=tableRow;horizontal=0;startSize=0;swimlaneHead=0;swimlaneBody=0;fillColor=none;collapsible=0;dropTarget=0;points=[[0,0.5],[1,0.5]];portConstraint=eastwest;top=0;left=0;right=0;bottom=0;" parent="-Ma8yGiCkcmnBZ08pdYG-20" vertex="1">
          <mxGeometry y="60" width="180" height="30" as="geometry" />
        </mxCell>
        <mxCell id="-Ma8yGiCkcmnBZ08pdYG-25" value="" style="shape=partialRectangle;connectable=0;fillColor=none;top=0;left=0;bottom=0;right=0;editable=1;overflow=hidden;whiteSpace=wrap;html=1;" parent="-Ma8yGiCkcmnBZ08pdYG-24" vertex="1">
          <mxGeometry width="30" height="30" as="geometry">
            <mxRectangle width="30" height="30" as="alternateBounds" />
          </mxGeometry>
        </mxCell>
        <mxCell id="-Ma8yGiCkcmnBZ08pdYG-26" value="nombre" style="shape=partialRectangle;connectable=0;fillColor=none;top=0;left=0;bottom=0;right=0;align=left;spacingLeft=6;overflow=hidden;whiteSpace=wrap;html=1;" parent="-Ma8yGiCkcmnBZ08pdYG-24" vertex="1">
          <mxGeometry x="30" width="150" height="30" as="geometry">
            <mxRectangle width="150" height="30" as="alternateBounds" />
          </mxGeometry>
        </mxCell>
        <mxCell id="-Ma8yGiCkcmnBZ08pdYG-27" value="" style="shape=tableRow;horizontal=0;startSize=0;swimlaneHead=0;swimlaneBody=0;fillColor=none;collapsible=0;dropTarget=0;points=[[0,0.5],[1,0.5]];portConstraint=eastwest;top=0;left=0;right=0;bottom=0;" parent="-Ma8yGiCkcmnBZ08pdYG-20" vertex="1">
          <mxGeometry y="90" width="180" height="30" as="geometry" />
        </mxCell>
        <mxCell id="-Ma8yGiCkcmnBZ08pdYG-28" value="" style="shape=partialRectangle;connectable=0;fillColor=none;top=0;left=0;bottom=0;right=0;editable=1;overflow=hidden;whiteSpace=wrap;html=1;" parent="-Ma8yGiCkcmnBZ08pdYG-27" vertex="1">
          <mxGeometry width="30" height="30" as="geometry">
            <mxRectangle width="30" height="30" as="alternateBounds" />
          </mxGeometry>
        </mxCell>
        <mxCell id="-Ma8yGiCkcmnBZ08pdYG-29" value="num_clubes_ajedrez" style="shape=partialRectangle;connectable=0;fillColor=none;top=0;left=0;bottom=0;right=0;align=left;spacingLeft=6;overflow=hidden;whiteSpace=wrap;html=1;" parent="-Ma8yGiCkcmnBZ08pdYG-27" vertex="1">
          <mxGeometry x="30" width="150" height="30" as="geometry">
            <mxRectangle width="150" height="30" as="alternateBounds" />
          </mxGeometry>
        </mxCell>
        <mxCell id="-Ma8yGiCkcmnBZ08pdYG-30" value="" style="shape=tableRow;horizontal=0;startSize=0;swimlaneHead=0;swimlaneBody=0;fillColor=none;collapsible=0;dropTarget=0;points=[[0,0.5],[1,0.5]];portConstraint=eastwest;top=0;left=0;right=0;bottom=0;" parent="-Ma8yGiCkcmnBZ08pdYG-20" vertex="1">
          <mxGeometry y="120" width="180" height="30" as="geometry" />
        </mxCell>
        <mxCell id="-Ma8yGiCkcmnBZ08pdYG-31" value="" style="shape=partialRectangle;connectable=0;fillColor=none;top=0;left=0;bottom=0;right=0;editable=1;overflow=hidden;whiteSpace=wrap;html=1;" parent="-Ma8yGiCkcmnBZ08pdYG-30" vertex="1">
          <mxGeometry width="30" height="30" as="geometry">
            <mxRectangle width="30" height="30" as="alternateBounds" />
          </mxGeometry>
        </mxCell>
        <mxCell id="-Ma8yGiCkcmnBZ08pdYG-32" value="representado" style="shape=partialRectangle;connectable=0;fillColor=none;top=0;left=0;bottom=0;right=0;align=left;spacingLeft=6;overflow=hidden;whiteSpace=wrap;html=1;" parent="-Ma8yGiCkcmnBZ08pdYG-30" vertex="1">
          <mxGeometry x="30" width="150" height="30" as="geometry">
            <mxRectangle width="150" height="30" as="alternateBounds" />
          </mxGeometry>
        </mxCell>
        <mxCell id="-Ma8yGiCkcmnBZ08pdYG-33" value="Jugadores" style="shape=table;startSize=30;container=1;collapsible=1;childLayout=tableLayout;fixedRows=1;rowLines=0;fontStyle=1;align=center;resizeLast=1;html=1;whiteSpace=wrap;" parent="1" vertex="1">
          <mxGeometry x="800" y="77" width="180" height="90" as="geometry" />
        </mxCell>
        <mxCell id="-Ma8yGiCkcmnBZ08pdYG-34" value="" style="shape=tableRow;horizontal=0;startSize=0;swimlaneHead=0;swimlaneBody=0;fillColor=none;collapsible=0;dropTarget=0;points=[[0,0.5],[1,0.5]];portConstraint=eastwest;top=0;left=0;right=0;bottom=1;html=1;" parent="-Ma8yGiCkcmnBZ08pdYG-33" vertex="1">
          <mxGeometry y="30" width="180" height="30" as="geometry" />
        </mxCell>
        <mxCell id="-Ma8yGiCkcmnBZ08pdYG-35" value="PK,FK" style="shape=partialRectangle;connectable=0;fillColor=none;top=0;left=0;bottom=0;right=0;fontStyle=1;overflow=hidden;html=1;whiteSpace=wrap;" parent="-Ma8yGiCkcmnBZ08pdYG-34" vertex="1">
          <mxGeometry width="60" height="30" as="geometry">
            <mxRectangle width="60" height="30" as="alternateBounds" />
          </mxGeometry>
        </mxCell>
        <mxCell id="-Ma8yGiCkcmnBZ08pdYG-36" value="numero_asociado" style="shape=partialRectangle;connectable=0;fillColor=none;top=0;left=0;bottom=0;right=0;align=left;spacingLeft=6;fontStyle=5;overflow=hidden;html=1;whiteSpace=wrap;" parent="-Ma8yGiCkcmnBZ08pdYG-34" vertex="1">
          <mxGeometry x="60" width="120" height="30" as="geometry">
            <mxRectangle width="120" height="30" as="alternateBounds" />
          </mxGeometry>
        </mxCell>
        <mxCell id="-Ma8yGiCkcmnBZ08pdYG-37" value="" style="shape=tableRow;horizontal=0;startSize=0;swimlaneHead=0;swimlaneBody=0;fillColor=none;collapsible=0;dropTarget=0;points=[[0,0.5],[1,0.5]];portConstraint=eastwest;top=0;left=0;right=0;bottom=0;html=1;" parent="-Ma8yGiCkcmnBZ08pdYG-33" vertex="1">
          <mxGeometry y="60" width="180" height="30" as="geometry" />
        </mxCell>
        <mxCell id="-Ma8yGiCkcmnBZ08pdYG-38" value="" style="shape=partialRectangle;connectable=0;fillColor=none;top=0;left=0;bottom=0;right=0;editable=1;overflow=hidden;html=1;whiteSpace=wrap;" parent="-Ma8yGiCkcmnBZ08pdYG-37" vertex="1">
          <mxGeometry width="60" height="30" as="geometry">
            <mxRectangle width="60" height="30" as="alternateBounds" />
          </mxGeometry>
        </mxCell>
        <mxCell id="-Ma8yGiCkcmnBZ08pdYG-39" value="nivel_juego" style="shape=partialRectangle;connectable=0;fillColor=none;top=0;left=0;bottom=0;right=0;align=left;spacingLeft=6;overflow=hidden;html=1;whiteSpace=wrap;" parent="-Ma8yGiCkcmnBZ08pdYG-37" vertex="1">
          <mxGeometry x="60" width="120" height="30" as="geometry">
            <mxRectangle width="120" height="30" as="alternateBounds" />
          </mxGeometry>
        </mxCell>
        <mxCell id="-Ma8yGiCkcmnBZ08pdYG-40" value="Partidas" style="shape=table;startSize=30;container=1;collapsible=1;childLayout=tableLayout;fixedRows=1;rowLines=0;fontStyle=1;align=center;resizeLast=1;html=1;" parent="1" vertex="1">
          <mxGeometry x="580" y="142" width="180" height="210" as="geometry" />
        </mxCell>
        <mxCell id="-Ma8yGiCkcmnBZ08pdYG-41" value="" style="shape=tableRow;horizontal=0;startSize=0;swimlaneHead=0;swimlaneBody=0;fillColor=none;collapsible=0;dropTarget=0;points=[[0,0.5],[1,0.5]];portConstraint=eastwest;top=0;left=0;right=0;bottom=1;" parent="-Ma8yGiCkcmnBZ08pdYG-40" vertex="1">
          <mxGeometry y="30" width="180" height="30" as="geometry" />
        </mxCell>
        <mxCell id="-Ma8yGiCkcmnBZ08pdYG-42" value="PK" style="shape=partialRectangle;connectable=0;fillColor=none;top=0;left=0;bottom=0;right=0;fontStyle=1;overflow=hidden;whiteSpace=wrap;html=1;" parent="-Ma8yGiCkcmnBZ08pdYG-41" vertex="1">
          <mxGeometry width="30" height="30" as="geometry">
            <mxRectangle width="30" height="30" as="alternateBounds" />
          </mxGeometry>
        </mxCell>
        <mxCell id="-Ma8yGiCkcmnBZ08pdYG-43" value="codigo" style="shape=partialRectangle;connectable=0;fillColor=none;top=0;left=0;bottom=0;right=0;align=left;spacingLeft=6;fontStyle=5;overflow=hidden;whiteSpace=wrap;html=1;" parent="-Ma8yGiCkcmnBZ08pdYG-41" vertex="1">
          <mxGeometry x="30" width="150" height="30" as="geometry">
            <mxRectangle width="150" height="30" as="alternateBounds" />
          </mxGeometry>
        </mxCell>
        <mxCell id="-Ma8yGiCkcmnBZ08pdYG-44" value="" style="shape=tableRow;horizontal=0;startSize=0;swimlaneHead=0;swimlaneBody=0;fillColor=none;collapsible=0;dropTarget=0;points=[[0,0.5],[1,0.5]];portConstraint=eastwest;top=0;left=0;right=0;bottom=0;" parent="-Ma8yGiCkcmnBZ08pdYG-40" vertex="1">
          <mxGeometry y="60" width="180" height="30" as="geometry" />
        </mxCell>
        <mxCell id="-Ma8yGiCkcmnBZ08pdYG-45" value="FK" style="shape=partialRectangle;connectable=0;fillColor=none;top=0;left=0;bottom=0;right=0;fontStyle=0;overflow=hidden;whiteSpace=wrap;html=1;" parent="-Ma8yGiCkcmnBZ08pdYG-44" vertex="1">
          <mxGeometry width="30" height="30" as="geometry">
            <mxRectangle width="30" height="30" as="alternateBounds" />
          </mxGeometry>
        </mxCell>
        <mxCell id="-Ma8yGiCkcmnBZ08pdYG-46" value="num_asociado_arbitro" style="shape=partialRectangle;connectable=0;fillColor=none;top=0;left=0;bottom=0;right=0;align=left;spacingLeft=6;fontStyle=0;overflow=hidden;whiteSpace=wrap;html=1;" parent="-Ma8yGiCkcmnBZ08pdYG-44" vertex="1">
          <mxGeometry x="30" width="150" height="30" as="geometry">
            <mxRectangle width="150" height="30" as="alternateBounds" />
          </mxGeometry>
        </mxCell>
        <mxCell id="-Ma8yGiCkcmnBZ08pdYG-47" value="" style="shape=tableRow;horizontal=0;startSize=0;swimlaneHead=0;swimlaneBody=0;fillColor=none;collapsible=0;dropTarget=0;points=[[0,0.5],[1,0.5]];portConstraint=eastwest;top=0;left=0;right=0;bottom=0;" parent="-Ma8yGiCkcmnBZ08pdYG-40" vertex="1">
          <mxGeometry y="90" width="180" height="30" as="geometry" />
        </mxCell>
        <mxCell id="-Ma8yGiCkcmnBZ08pdYG-48" value="FK" style="shape=partialRectangle;connectable=0;fillColor=none;top=0;left=0;bottom=0;right=0;fontStyle=0;overflow=hidden;whiteSpace=wrap;html=1;" parent="-Ma8yGiCkcmnBZ08pdYG-47" vertex="1">
          <mxGeometry width="30" height="30" as="geometry">
            <mxRectangle width="30" height="30" as="alternateBounds" />
          </mxGeometry>
        </mxCell>
        <mxCell id="-Ma8yGiCkcmnBZ08pdYG-49" value="num_asociado_blancas" style="shape=partialRectangle;connectable=0;fillColor=none;top=0;left=0;bottom=0;right=0;align=left;spacingLeft=6;fontStyle=0;overflow=hidden;whiteSpace=wrap;html=1;" parent="-Ma8yGiCkcmnBZ08pdYG-47" vertex="1">
          <mxGeometry x="30" width="150" height="30" as="geometry">
            <mxRectangle width="150" height="30" as="alternateBounds" />
          </mxGeometry>
        </mxCell>
        <mxCell id="-Ma8yGiCkcmnBZ08pdYG-50" value="" style="shape=tableRow;horizontal=0;startSize=0;swimlaneHead=0;swimlaneBody=0;fillColor=none;collapsible=0;dropTarget=0;points=[[0,0.5],[1,0.5]];portConstraint=eastwest;top=0;left=0;right=0;bottom=0;" parent="-Ma8yGiCkcmnBZ08pdYG-40" vertex="1">
          <mxGeometry y="120" width="180" height="30" as="geometry" />
        </mxCell>
        <mxCell id="-Ma8yGiCkcmnBZ08pdYG-51" value="FK" style="shape=partialRectangle;connectable=0;fillColor=none;top=0;left=0;bottom=0;right=0;fontStyle=0;overflow=hidden;whiteSpace=wrap;html=1;" parent="-Ma8yGiCkcmnBZ08pdYG-50" vertex="1">
          <mxGeometry width="30" height="30" as="geometry">
            <mxRectangle width="30" height="30" as="alternateBounds" />
          </mxGeometry>
        </mxCell>
        <mxCell id="-Ma8yGiCkcmnBZ08pdYG-52" value="num_asociado_negras" style="shape=partialRectangle;connectable=0;fillColor=none;top=0;left=0;bottom=0;right=0;align=left;spacingLeft=6;fontStyle=0;overflow=hidden;whiteSpace=wrap;html=1;" parent="-Ma8yGiCkcmnBZ08pdYG-50" vertex="1">
          <mxGeometry x="30" width="150" height="30" as="geometry">
            <mxRectangle width="150" height="30" as="alternateBounds" />
          </mxGeometry>
        </mxCell>
        <mxCell id="-Ma8yGiCkcmnBZ08pdYG-143" value="" style="shape=tableRow;horizontal=0;startSize=0;swimlaneHead=0;swimlaneBody=0;fillColor=none;collapsible=0;dropTarget=0;points=[[0,0.5],[1,0.5]];portConstraint=eastwest;top=0;left=0;right=0;bottom=0;" parent="-Ma8yGiCkcmnBZ08pdYG-40" vertex="1">
          <mxGeometry y="150" width="180" height="30" as="geometry" />
        </mxCell>
        <mxCell id="-Ma8yGiCkcmnBZ08pdYG-144" value="FK" style="shape=partialRectangle;connectable=0;fillColor=none;top=0;left=0;bottom=0;right=0;fontStyle=0;overflow=hidden;whiteSpace=wrap;html=1;" parent="-Ma8yGiCkcmnBZ08pdYG-143" vertex="1">
          <mxGeometry width="30" height="30" as="geometry">
            <mxRectangle width="30" height="30" as="alternateBounds" />
          </mxGeometry>
        </mxCell>
        <mxCell id="-Ma8yGiCkcmnBZ08pdYG-145" value="codigo_sala" style="shape=partialRectangle;connectable=0;fillColor=none;top=0;left=0;bottom=0;right=0;align=left;spacingLeft=6;fontStyle=0;overflow=hidden;whiteSpace=wrap;html=1;" parent="-Ma8yGiCkcmnBZ08pdYG-143" vertex="1">
          <mxGeometry x="30" width="150" height="30" as="geometry">
            <mxRectangle width="150" height="30" as="alternateBounds" />
          </mxGeometry>
        </mxCell>
        <mxCell id="-Ma8yGiCkcmnBZ08pdYG-53" value="" style="shape=tableRow;horizontal=0;startSize=0;swimlaneHead=0;swimlaneBody=0;fillColor=none;collapsible=0;dropTarget=0;points=[[0,0.5],[1,0.5]];portConstraint=eastwest;top=0;left=0;right=0;bottom=0;" parent="-Ma8yGiCkcmnBZ08pdYG-40" vertex="1">
          <mxGeometry y="180" width="180" height="30" as="geometry" />
        </mxCell>
        <mxCell id="-Ma8yGiCkcmnBZ08pdYG-54" value="" style="shape=partialRectangle;connectable=0;fillColor=none;top=0;left=0;bottom=0;right=0;editable=1;overflow=hidden;whiteSpace=wrap;html=1;" parent="-Ma8yGiCkcmnBZ08pdYG-53" vertex="1">
          <mxGeometry width="30" height="30" as="geometry">
            <mxRectangle width="30" height="30" as="alternateBounds" />
          </mxGeometry>
        </mxCell>
        <mxCell id="-Ma8yGiCkcmnBZ08pdYG-55" value="jornada" style="shape=partialRectangle;connectable=0;fillColor=none;top=0;left=0;bottom=0;right=0;align=left;spacingLeft=6;overflow=hidden;whiteSpace=wrap;html=1;" parent="-Ma8yGiCkcmnBZ08pdYG-53" vertex="1">
          <mxGeometry x="30" width="150" height="30" as="geometry">
            <mxRectangle width="150" height="30" as="alternateBounds" />
          </mxGeometry>
        </mxCell>
        <mxCell id="-Ma8yGiCkcmnBZ08pdYG-62" value="Movimientos" style="shape=table;startSize=30;container=1;collapsible=1;childLayout=tableLayout;fixedRows=1;rowLines=0;fontStyle=1;align=center;resizeLast=1;html=1;" parent="1" vertex="1">
          <mxGeometry x="800" y="202" width="180" height="180" as="geometry" />
        </mxCell>
        <mxCell id="-Ma8yGiCkcmnBZ08pdYG-63" value="" style="shape=tableRow;horizontal=0;startSize=0;swimlaneHead=0;swimlaneBody=0;fillColor=none;collapsible=0;dropTarget=0;points=[[0,0.5],[1,0.5]];portConstraint=eastwest;top=0;left=0;right=0;bottom=1;" parent="-Ma8yGiCkcmnBZ08pdYG-62" vertex="1">
          <mxGeometry y="30" width="180" height="30" as="geometry" />
        </mxCell>
        <mxCell id="-Ma8yGiCkcmnBZ08pdYG-64" value="PK" style="shape=partialRectangle;connectable=0;fillColor=none;top=0;left=0;bottom=0;right=0;fontStyle=1;overflow=hidden;whiteSpace=wrap;html=1;" parent="-Ma8yGiCkcmnBZ08pdYG-63" vertex="1">
          <mxGeometry width="30" height="30" as="geometry">
            <mxRectangle width="30" height="30" as="alternateBounds" />
          </mxGeometry>
        </mxCell>
        <mxCell id="-Ma8yGiCkcmnBZ08pdYG-65" value="id" style="shape=partialRectangle;connectable=0;fillColor=none;top=0;left=0;bottom=0;right=0;align=left;spacingLeft=6;fontStyle=5;overflow=hidden;whiteSpace=wrap;html=1;" parent="-Ma8yGiCkcmnBZ08pdYG-63" vertex="1">
          <mxGeometry x="30" width="150" height="30" as="geometry">
            <mxRectangle width="150" height="30" as="alternateBounds" />
          </mxGeometry>
        </mxCell>
        <mxCell id="-Ma8yGiCkcmnBZ08pdYG-124" value="" style="shape=tableRow;horizontal=0;startSize=0;swimlaneHead=0;swimlaneBody=0;fillColor=none;collapsible=0;dropTarget=0;points=[[0,0.5],[1,0.5]];portConstraint=eastwest;top=0;left=0;right=0;bottom=0;" parent="-Ma8yGiCkcmnBZ08pdYG-62" vertex="1">
          <mxGeometry y="60" width="180" height="30" as="geometry" />
        </mxCell>
        <mxCell id="-Ma8yGiCkcmnBZ08pdYG-125" value="FK" style="shape=partialRectangle;connectable=0;fillColor=none;top=0;left=0;bottom=0;right=0;fontStyle=0;overflow=hidden;whiteSpace=wrap;html=1;" parent="-Ma8yGiCkcmnBZ08pdYG-124" vertex="1">
          <mxGeometry width="30" height="30" as="geometry">
            <mxRectangle width="30" height="30" as="alternateBounds" />
          </mxGeometry>
        </mxCell>
        <mxCell id="-Ma8yGiCkcmnBZ08pdYG-126" value="codigo_partida" style="shape=partialRectangle;connectable=0;fillColor=none;top=0;left=0;bottom=0;right=0;align=left;spacingLeft=6;fontStyle=0;overflow=hidden;whiteSpace=wrap;html=1;" parent="-Ma8yGiCkcmnBZ08pdYG-124" vertex="1">
          <mxGeometry x="30" width="150" height="30" as="geometry">
            <mxRectangle width="150" height="30" as="alternateBounds" />
          </mxGeometry>
        </mxCell>
        <mxCell id="-Ma8yGiCkcmnBZ08pdYG-66" value="" style="shape=tableRow;horizontal=0;startSize=0;swimlaneHead=0;swimlaneBody=0;fillColor=none;collapsible=0;dropTarget=0;points=[[0,0.5],[1,0.5]];portConstraint=eastwest;top=0;left=0;right=0;bottom=0;" parent="-Ma8yGiCkcmnBZ08pdYG-62" vertex="1">
          <mxGeometry y="90" width="180" height="30" as="geometry" />
        </mxCell>
        <mxCell id="-Ma8yGiCkcmnBZ08pdYG-67" value="" style="shape=partialRectangle;connectable=0;fillColor=none;top=0;left=0;bottom=0;right=0;editable=1;overflow=hidden;whiteSpace=wrap;html=1;" parent="-Ma8yGiCkcmnBZ08pdYG-66" vertex="1">
          <mxGeometry width="30" height="30" as="geometry">
            <mxRectangle width="30" height="30" as="alternateBounds" />
          </mxGeometry>
        </mxCell>
        <mxCell id="-Ma8yGiCkcmnBZ08pdYG-68" value="num_movimiento" style="shape=partialRectangle;connectable=0;fillColor=none;top=0;left=0;bottom=0;right=0;align=left;spacingLeft=6;overflow=hidden;whiteSpace=wrap;html=1;" parent="-Ma8yGiCkcmnBZ08pdYG-66" vertex="1">
          <mxGeometry x="30" width="150" height="30" as="geometry">
            <mxRectangle width="150" height="30" as="alternateBounds" />
          </mxGeometry>
        </mxCell>
        <mxCell id="-Ma8yGiCkcmnBZ08pdYG-69" value="" style="shape=tableRow;horizontal=0;startSize=0;swimlaneHead=0;swimlaneBody=0;fillColor=none;collapsible=0;dropTarget=0;points=[[0,0.5],[1,0.5]];portConstraint=eastwest;top=0;left=0;right=0;bottom=0;" parent="-Ma8yGiCkcmnBZ08pdYG-62" vertex="1">
          <mxGeometry y="120" width="180" height="30" as="geometry" />
        </mxCell>
        <mxCell id="-Ma8yGiCkcmnBZ08pdYG-70" value="" style="shape=partialRectangle;connectable=0;fillColor=none;top=0;left=0;bottom=0;right=0;editable=1;overflow=hidden;whiteSpace=wrap;html=1;" parent="-Ma8yGiCkcmnBZ08pdYG-69" vertex="1">
          <mxGeometry width="30" height="30" as="geometry">
            <mxRectangle width="30" height="30" as="alternateBounds" />
          </mxGeometry>
        </mxCell>
        <mxCell id="-Ma8yGiCkcmnBZ08pdYG-71" value="jugada" style="shape=partialRectangle;connectable=0;fillColor=none;top=0;left=0;bottom=0;right=0;align=left;spacingLeft=6;overflow=hidden;whiteSpace=wrap;html=1;" parent="-Ma8yGiCkcmnBZ08pdYG-69" vertex="1">
          <mxGeometry x="30" width="150" height="30" as="geometry">
            <mxRectangle width="150" height="30" as="alternateBounds" />
          </mxGeometry>
        </mxCell>
        <mxCell id="-Ma8yGiCkcmnBZ08pdYG-72" value="" style="shape=tableRow;horizontal=0;startSize=0;swimlaneHead=0;swimlaneBody=0;fillColor=none;collapsible=0;dropTarget=0;points=[[0,0.5],[1,0.5]];portConstraint=eastwest;top=0;left=0;right=0;bottom=0;" parent="-Ma8yGiCkcmnBZ08pdYG-62" vertex="1">
          <mxGeometry y="150" width="180" height="30" as="geometry" />
        </mxCell>
        <mxCell id="-Ma8yGiCkcmnBZ08pdYG-73" value="" style="shape=partialRectangle;connectable=0;fillColor=none;top=0;left=0;bottom=0;right=0;editable=1;overflow=hidden;whiteSpace=wrap;html=1;" parent="-Ma8yGiCkcmnBZ08pdYG-72" vertex="1">
          <mxGeometry width="30" height="30" as="geometry">
            <mxRectangle width="30" height="30" as="alternateBounds" />
          </mxGeometry>
        </mxCell>
        <mxCell id="-Ma8yGiCkcmnBZ08pdYG-74" value="comentario" style="shape=partialRectangle;connectable=0;fillColor=none;top=0;left=0;bottom=0;right=0;align=left;spacingLeft=6;overflow=hidden;whiteSpace=wrap;html=1;" parent="-Ma8yGiCkcmnBZ08pdYG-72" vertex="1">
          <mxGeometry x="30" width="150" height="30" as="geometry">
            <mxRectangle width="150" height="30" as="alternateBounds" />
          </mxGeometry>
        </mxCell>
        <mxCell id="-Ma8yGiCkcmnBZ08pdYG-75" value="Hoteles_Participantes" style="shape=table;startSize=30;container=1;collapsible=1;childLayout=tableLayout;fixedRows=1;rowLines=0;fontStyle=1;align=center;resizeLast=1;html=1;whiteSpace=wrap;" parent="1" vertex="1">
          <mxGeometry x="360" y="-108" width="180" height="150" as="geometry" />
        </mxCell>
        <mxCell id="-Ma8yGiCkcmnBZ08pdYG-76" value="" style="shape=tableRow;horizontal=0;startSize=0;swimlaneHead=0;swimlaneBody=0;fillColor=none;collapsible=0;dropTarget=0;points=[[0,0.5],[1,0.5]];portConstraint=eastwest;top=0;left=0;right=0;bottom=0;html=1;" parent="-Ma8yGiCkcmnBZ08pdYG-75" vertex="1">
          <mxGeometry y="30" width="180" height="30" as="geometry" />
        </mxCell>
        <mxCell id="-Ma8yGiCkcmnBZ08pdYG-77" value="PK,FK1" style="shape=partialRectangle;connectable=0;fillColor=none;top=0;left=0;bottom=0;right=0;fontStyle=1;overflow=hidden;html=1;whiteSpace=wrap;" parent="-Ma8yGiCkcmnBZ08pdYG-76" vertex="1">
          <mxGeometry width="60" height="30" as="geometry">
            <mxRectangle width="60" height="30" as="alternateBounds" />
          </mxGeometry>
        </mxCell>
        <mxCell id="-Ma8yGiCkcmnBZ08pdYG-78" value="direccion_hotel" style="shape=partialRectangle;connectable=0;fillColor=none;top=0;left=0;bottom=0;right=0;align=left;spacingLeft=6;fontStyle=5;overflow=hidden;html=1;whiteSpace=wrap;" parent="-Ma8yGiCkcmnBZ08pdYG-76" vertex="1">
          <mxGeometry x="60" width="120" height="30" as="geometry">
            <mxRectangle width="120" height="30" as="alternateBounds" />
          </mxGeometry>
        </mxCell>
        <mxCell id="-Ma8yGiCkcmnBZ08pdYG-79" value="" style="shape=tableRow;horizontal=0;startSize=0;swimlaneHead=0;swimlaneBody=0;fillColor=none;collapsible=0;dropTarget=0;points=[[0,0.5],[1,0.5]];portConstraint=eastwest;top=0;left=0;right=0;bottom=1;html=1;" parent="-Ma8yGiCkcmnBZ08pdYG-75" vertex="1">
          <mxGeometry y="60" width="180" height="30" as="geometry" />
        </mxCell>
        <mxCell id="-Ma8yGiCkcmnBZ08pdYG-80" value="PK,FK2" style="shape=partialRectangle;connectable=0;fillColor=none;top=0;left=0;bottom=0;right=0;fontStyle=1;overflow=hidden;html=1;whiteSpace=wrap;" parent="-Ma8yGiCkcmnBZ08pdYG-79" vertex="1">
          <mxGeometry width="60" height="30" as="geometry">
            <mxRectangle width="60" height="30" as="alternateBounds" />
          </mxGeometry>
        </mxCell>
        <mxCell id="-Ma8yGiCkcmnBZ08pdYG-81" value="num_asoc_partici" style="shape=partialRectangle;connectable=0;fillColor=none;top=0;left=0;bottom=0;right=0;align=left;spacingLeft=6;fontStyle=5;overflow=hidden;html=1;whiteSpace=wrap;" parent="-Ma8yGiCkcmnBZ08pdYG-79" vertex="1">
          <mxGeometry x="60" width="120" height="30" as="geometry">
            <mxRectangle width="120" height="30" as="alternateBounds" />
          </mxGeometry>
        </mxCell>
        <mxCell id="-Ma8yGiCkcmnBZ08pdYG-82" value="" style="shape=tableRow;horizontal=0;startSize=0;swimlaneHead=0;swimlaneBody=0;fillColor=none;collapsible=0;dropTarget=0;points=[[0,0.5],[1,0.5]];portConstraint=eastwest;top=0;left=0;right=0;bottom=0;html=1;" parent="-Ma8yGiCkcmnBZ08pdYG-75" vertex="1">
          <mxGeometry y="90" width="180" height="30" as="geometry" />
        </mxCell>
        <mxCell id="-Ma8yGiCkcmnBZ08pdYG-83" value="" style="shape=partialRectangle;connectable=0;fillColor=none;top=0;left=0;bottom=0;right=0;editable=1;overflow=hidden;html=1;whiteSpace=wrap;" parent="-Ma8yGiCkcmnBZ08pdYG-82" vertex="1">
          <mxGeometry width="60" height="30" as="geometry">
            <mxRectangle width="60" height="30" as="alternateBounds" />
          </mxGeometry>
        </mxCell>
        <mxCell id="-Ma8yGiCkcmnBZ08pdYG-84" value="fecha_entrada" style="shape=partialRectangle;connectable=0;fillColor=none;top=0;left=0;bottom=0;right=0;align=left;spacingLeft=6;overflow=hidden;html=1;whiteSpace=wrap;" parent="-Ma8yGiCkcmnBZ08pdYG-82" vertex="1">
          <mxGeometry x="60" width="120" height="30" as="geometry">
            <mxRectangle width="120" height="30" as="alternateBounds" />
          </mxGeometry>
        </mxCell>
        <mxCell id="-Ma8yGiCkcmnBZ08pdYG-85" value="" style="shape=tableRow;horizontal=0;startSize=0;swimlaneHead=0;swimlaneBody=0;fillColor=none;collapsible=0;dropTarget=0;points=[[0,0.5],[1,0.5]];portConstraint=eastwest;top=0;left=0;right=0;bottom=0;html=1;" parent="-Ma8yGiCkcmnBZ08pdYG-75" vertex="1">
          <mxGeometry y="120" width="180" height="30" as="geometry" />
        </mxCell>
        <mxCell id="-Ma8yGiCkcmnBZ08pdYG-86" value="" style="shape=partialRectangle;connectable=0;fillColor=none;top=0;left=0;bottom=0;right=0;editable=1;overflow=hidden;html=1;whiteSpace=wrap;" parent="-Ma8yGiCkcmnBZ08pdYG-85" vertex="1">
          <mxGeometry width="60" height="30" as="geometry">
            <mxRectangle width="60" height="30" as="alternateBounds" />
          </mxGeometry>
        </mxCell>
        <mxCell id="-Ma8yGiCkcmnBZ08pdYG-87" value="fecha_salida" style="shape=partialRectangle;connectable=0;fillColor=none;top=0;left=0;bottom=0;right=0;align=left;spacingLeft=6;overflow=hidden;html=1;whiteSpace=wrap;" parent="-Ma8yGiCkcmnBZ08pdYG-85" vertex="1">
          <mxGeometry x="60" width="120" height="30" as="geometry">
            <mxRectangle width="120" height="30" as="alternateBounds" />
          </mxGeometry>
        </mxCell>
        <mxCell id="-Ma8yGiCkcmnBZ08pdYG-88" value="Hoteles" style="shape=table;startSize=30;container=1;collapsible=1;childLayout=tableLayout;fixedRows=1;rowLines=0;fontStyle=1;align=center;resizeLast=1;html=1;" parent="1" vertex="1">
          <mxGeometry x="140" y="-108" width="180" height="120" as="geometry" />
        </mxCell>
        <mxCell id="-Ma8yGiCkcmnBZ08pdYG-89" value="" style="shape=tableRow;horizontal=0;startSize=0;swimlaneHead=0;swimlaneBody=0;fillColor=none;collapsible=0;dropTarget=0;points=[[0,0.5],[1,0.5]];portConstraint=eastwest;top=0;left=0;right=0;bottom=1;" parent="-Ma8yGiCkcmnBZ08pdYG-88" vertex="1">
          <mxGeometry y="30" width="180" height="30" as="geometry" />
        </mxCell>
        <mxCell id="-Ma8yGiCkcmnBZ08pdYG-90" value="PK" style="shape=partialRectangle;connectable=0;fillColor=none;top=0;left=0;bottom=0;right=0;fontStyle=1;overflow=hidden;whiteSpace=wrap;html=1;" parent="-Ma8yGiCkcmnBZ08pdYG-89" vertex="1">
          <mxGeometry width="30" height="30" as="geometry">
            <mxRectangle width="30" height="30" as="alternateBounds" />
          </mxGeometry>
        </mxCell>
        <mxCell id="-Ma8yGiCkcmnBZ08pdYG-91" value="direccion" style="shape=partialRectangle;connectable=0;fillColor=none;top=0;left=0;bottom=0;right=0;align=left;spacingLeft=6;fontStyle=5;overflow=hidden;whiteSpace=wrap;html=1;" parent="-Ma8yGiCkcmnBZ08pdYG-89" vertex="1">
          <mxGeometry x="30" width="150" height="30" as="geometry">
            <mxRectangle width="150" height="30" as="alternateBounds" />
          </mxGeometry>
        </mxCell>
        <mxCell id="-Ma8yGiCkcmnBZ08pdYG-92" value="" style="shape=tableRow;horizontal=0;startSize=0;swimlaneHead=0;swimlaneBody=0;fillColor=none;collapsible=0;dropTarget=0;points=[[0,0.5],[1,0.5]];portConstraint=eastwest;top=0;left=0;right=0;bottom=0;" parent="-Ma8yGiCkcmnBZ08pdYG-88" vertex="1">
          <mxGeometry y="60" width="180" height="30" as="geometry" />
        </mxCell>
        <mxCell id="-Ma8yGiCkcmnBZ08pdYG-93" value="" style="shape=partialRectangle;connectable=0;fillColor=none;top=0;left=0;bottom=0;right=0;editable=1;overflow=hidden;whiteSpace=wrap;html=1;" parent="-Ma8yGiCkcmnBZ08pdYG-92" vertex="1">
          <mxGeometry width="30" height="30" as="geometry">
            <mxRectangle width="30" height="30" as="alternateBounds" />
          </mxGeometry>
        </mxCell>
        <mxCell id="-Ma8yGiCkcmnBZ08pdYG-94" value="nombre" style="shape=partialRectangle;connectable=0;fillColor=none;top=0;left=0;bottom=0;right=0;align=left;spacingLeft=6;overflow=hidden;whiteSpace=wrap;html=1;" parent="-Ma8yGiCkcmnBZ08pdYG-92" vertex="1">
          <mxGeometry x="30" width="150" height="30" as="geometry">
            <mxRectangle width="150" height="30" as="alternateBounds" />
          </mxGeometry>
        </mxCell>
        <mxCell id="-Ma8yGiCkcmnBZ08pdYG-95" value="" style="shape=tableRow;horizontal=0;startSize=0;swimlaneHead=0;swimlaneBody=0;fillColor=none;collapsible=0;dropTarget=0;points=[[0,0.5],[1,0.5]];portConstraint=eastwest;top=0;left=0;right=0;bottom=0;" parent="-Ma8yGiCkcmnBZ08pdYG-88" vertex="1">
          <mxGeometry y="90" width="180" height="30" as="geometry" />
        </mxCell>
        <mxCell id="-Ma8yGiCkcmnBZ08pdYG-96" value="" style="shape=partialRectangle;connectable=0;fillColor=none;top=0;left=0;bottom=0;right=0;editable=1;overflow=hidden;whiteSpace=wrap;html=1;" parent="-Ma8yGiCkcmnBZ08pdYG-95" vertex="1">
          <mxGeometry width="30" height="30" as="geometry">
            <mxRectangle width="30" height="30" as="alternateBounds" />
          </mxGeometry>
        </mxCell>
        <mxCell id="-Ma8yGiCkcmnBZ08pdYG-97" value="telefono" style="shape=partialRectangle;connectable=0;fillColor=none;top=0;left=0;bottom=0;right=0;align=left;spacingLeft=6;overflow=hidden;whiteSpace=wrap;html=1;" parent="-Ma8yGiCkcmnBZ08pdYG-95" vertex="1">
          <mxGeometry x="30" width="150" height="30" as="geometry">
            <mxRectangle width="150" height="30" as="alternateBounds" />
          </mxGeometry>
        </mxCell>
        <mxCell id="-Ma8yGiCkcmnBZ08pdYG-98" value="" style="endArrow=classic;html=1;rounded=0;exitX=0;exitY=0.5;exitDx=0;exitDy=0;entryX=1;entryY=0.5;entryDx=0;entryDy=0;" parent="1" source="-Ma8yGiCkcmnBZ08pdYG-21" target="-Ma8yGiCkcmnBZ08pdYG-5" edge="1">
          <mxGeometry width="50" height="50" relative="1" as="geometry">
            <mxPoint x="787" y="40" as="sourcePoint" />
            <mxPoint x="837" y="-10" as="targetPoint" />
            <Array as="points">
              <mxPoint x="780" y="-63" />
              <mxPoint x="780" y="-33" />
            </Array>
          </mxGeometry>
        </mxCell>
        <mxCell id="-Ma8yGiCkcmnBZ08pdYG-100" value="" style="endArrow=classic;html=1;rounded=0;entryX=1;entryY=0.5;entryDx=0;entryDy=0;exitX=0;exitY=0.5;exitDx=0;exitDy=0;" parent="1" source="-Ma8yGiCkcmnBZ08pdYG-2" target="-Ma8yGiCkcmnBZ08pdYG-79" edge="1">
          <mxGeometry width="50" height="50" relative="1" as="geometry">
            <mxPoint x="551" y="-12" as="sourcePoint" />
            <mxPoint x="601" y="-62" as="targetPoint" />
            <Array as="points">
              <mxPoint x="560" y="-63" />
              <mxPoint x="560" y="-33" />
            </Array>
          </mxGeometry>
        </mxCell>
        <mxCell id="-Ma8yGiCkcmnBZ08pdYG-101" value="" style="endArrow=classic;html=1;rounded=0;exitX=0;exitY=0.5;exitDx=0;exitDy=0;entryX=0;entryY=0.5;entryDx=0;entryDy=0;" parent="1" source="-Ma8yGiCkcmnBZ08pdYG-2" target="-Ma8yGiCkcmnBZ08pdYG-34" edge="1">
          <mxGeometry width="50" height="50" relative="1" as="geometry">
            <mxPoint x="603" y="121" as="sourcePoint" />
            <mxPoint x="653" y="71" as="targetPoint" />
            <Array as="points">
              <mxPoint x="560" y="-63" />
              <mxPoint x="560" y="122" />
            </Array>
          </mxGeometry>
        </mxCell>
        <mxCell id="-Ma8yGiCkcmnBZ08pdYG-102" value="" style="endArrow=classic;html=1;rounded=0;exitX=0;exitY=0.5;exitDx=0;exitDy=0;entryX=0;entryY=0.5;entryDx=0;entryDy=0;" parent="1" source="-Ma8yGiCkcmnBZ08pdYG-2" target="-Ma8yGiCkcmnBZ08pdYG-44" edge="1">
          <mxGeometry width="50" height="50" relative="1" as="geometry">
            <mxPoint x="650" y="213" as="sourcePoint" />
            <mxPoint x="700" y="163" as="targetPoint" />
            <Array as="points">
              <mxPoint x="560" y="-63" />
              <mxPoint x="560" y="217" />
            </Array>
          </mxGeometry>
        </mxCell>
        <mxCell id="-Ma8yGiCkcmnBZ08pdYG-103" value="" style="endArrow=classic;html=1;rounded=0;exitX=0;exitY=0.5;exitDx=0;exitDy=0;entryX=0;entryY=0.5;entryDx=0;entryDy=0;" parent="1" source="-Ma8yGiCkcmnBZ08pdYG-2" target="-Ma8yGiCkcmnBZ08pdYG-47" edge="1">
          <mxGeometry width="50" height="50" relative="1" as="geometry">
            <mxPoint x="686" y="201" as="sourcePoint" />
            <mxPoint x="736" y="151" as="targetPoint" />
            <Array as="points">
              <mxPoint x="560" y="-63" />
              <mxPoint x="560" y="247" />
            </Array>
          </mxGeometry>
        </mxCell>
        <mxCell id="-Ma8yGiCkcmnBZ08pdYG-104" value="" style="endArrow=classic;html=1;rounded=0;exitX=0;exitY=0.5;exitDx=0;exitDy=0;entryX=0;entryY=0.5;entryDx=0;entryDy=0;" parent="1" source="-Ma8yGiCkcmnBZ08pdYG-2" target="-Ma8yGiCkcmnBZ08pdYG-50" edge="1">
          <mxGeometry width="50" height="50" relative="1" as="geometry">
            <mxPoint x="628" y="64" as="sourcePoint" />
            <mxPoint x="678" y="14" as="targetPoint" />
            <Array as="points">
              <mxPoint x="560" y="-63" />
              <mxPoint x="560" y="277" />
            </Array>
          </mxGeometry>
        </mxCell>
        <mxCell id="-Ma8yGiCkcmnBZ08pdYG-105" value="" style="endArrow=classic;html=1;rounded=0;entryX=0;entryY=0.5;entryDx=0;entryDy=0;exitX=1;exitY=0.5;exitDx=0;exitDy=0;" parent="1" source="-Ma8yGiCkcmnBZ08pdYG-89" target="-Ma8yGiCkcmnBZ08pdYG-76" edge="1">
          <mxGeometry width="50" height="50" relative="1" as="geometry">
            <mxPoint x="309" as="sourcePoint" />
            <mxPoint x="359" y="-50" as="targetPoint" />
          </mxGeometry>
        </mxCell>
        <mxCell id="-Ma8yGiCkcmnBZ08pdYG-127" value="" style="endArrow=classic;html=1;rounded=0;exitX=1;exitY=0.5;exitDx=0;exitDy=0;entryX=0;entryY=0.5;entryDx=0;entryDy=0;" parent="1" source="-Ma8yGiCkcmnBZ08pdYG-41" target="-Ma8yGiCkcmnBZ08pdYG-124" edge="1">
          <mxGeometry width="50" height="50" relative="1" as="geometry">
            <mxPoint x="928" y="205" as="sourcePoint" />
            <mxPoint x="978" y="155" as="targetPoint" />
            <Array as="points">
              <mxPoint x="780" y="187" />
              <mxPoint x="780" y="277" />
            </Array>
          </mxGeometry>
        </mxCell>
        <mxCell id="-Ma8yGiCkcmnBZ08pdYG-129" value="Salas" style="shape=table;startSize=30;container=1;collapsible=1;childLayout=tableLayout;fixedRows=1;rowLines=0;fontStyle=1;align=center;resizeLast=1;html=1;" parent="1" vertex="1">
          <mxGeometry x="140" y="52" width="180" height="180" as="geometry" />
        </mxCell>
        <mxCell id="-Ma8yGiCkcmnBZ08pdYG-130" value="" style="shape=tableRow;horizontal=0;startSize=0;swimlaneHead=0;swimlaneBody=0;fillColor=none;collapsible=0;dropTarget=0;points=[[0,0.5],[1,0.5]];portConstraint=eastwest;top=0;left=0;right=0;bottom=1;" parent="-Ma8yGiCkcmnBZ08pdYG-129" vertex="1">
          <mxGeometry y="30" width="180" height="30" as="geometry" />
        </mxCell>
        <mxCell id="-Ma8yGiCkcmnBZ08pdYG-131" value="PK" style="shape=partialRectangle;connectable=0;fillColor=none;top=0;left=0;bottom=0;right=0;fontStyle=1;overflow=hidden;whiteSpace=wrap;html=1;" parent="-Ma8yGiCkcmnBZ08pdYG-130" vertex="1">
          <mxGeometry width="30" height="30" as="geometry">
            <mxRectangle width="30" height="30" as="alternateBounds" />
          </mxGeometry>
        </mxCell>
        <mxCell id="-Ma8yGiCkcmnBZ08pdYG-132" value="codigo" style="shape=partialRectangle;connectable=0;fillColor=none;top=0;left=0;bottom=0;right=0;align=left;spacingLeft=6;fontStyle=5;overflow=hidden;whiteSpace=wrap;html=1;" parent="-Ma8yGiCkcmnBZ08pdYG-130" vertex="1">
          <mxGeometry x="30" width="150" height="30" as="geometry">
            <mxRectangle width="150" height="30" as="alternateBounds" />
          </mxGeometry>
        </mxCell>
        <mxCell id="-Ma8yGiCkcmnBZ08pdYG-149" value="" style="shape=tableRow;horizontal=0;startSize=0;swimlaneHead=0;swimlaneBody=0;fillColor=none;collapsible=0;dropTarget=0;points=[[0,0.5],[1,0.5]];portConstraint=eastwest;top=0;left=0;right=0;bottom=0;" parent="-Ma8yGiCkcmnBZ08pdYG-129" vertex="1">
          <mxGeometry y="60" width="180" height="30" as="geometry" />
        </mxCell>
        <mxCell id="-Ma8yGiCkcmnBZ08pdYG-150" value="FK" style="shape=partialRectangle;connectable=0;fillColor=none;top=0;left=0;bottom=0;right=0;fontStyle=0;overflow=hidden;whiteSpace=wrap;html=1;" parent="-Ma8yGiCkcmnBZ08pdYG-149" vertex="1">
          <mxGeometry width="30" height="30" as="geometry">
            <mxRectangle width="30" height="30" as="alternateBounds" />
          </mxGeometry>
        </mxCell>
        <mxCell id="-Ma8yGiCkcmnBZ08pdYG-151" value="direccion_hotel" style="shape=partialRectangle;connectable=0;fillColor=none;top=0;left=0;bottom=0;right=0;align=left;spacingLeft=6;fontStyle=0;overflow=hidden;whiteSpace=wrap;html=1;" parent="-Ma8yGiCkcmnBZ08pdYG-149" vertex="1">
          <mxGeometry x="30" width="150" height="30" as="geometry">
            <mxRectangle width="150" height="30" as="alternateBounds" />
          </mxGeometry>
        </mxCell>
        <mxCell id="-Ma8yGiCkcmnBZ08pdYG-133" value="" style="shape=tableRow;horizontal=0;startSize=0;swimlaneHead=0;swimlaneBody=0;fillColor=none;collapsible=0;dropTarget=0;points=[[0,0.5],[1,0.5]];portConstraint=eastwest;top=0;left=0;right=0;bottom=0;" parent="-Ma8yGiCkcmnBZ08pdYG-129" vertex="1">
          <mxGeometry y="90" width="180" height="30" as="geometry" />
        </mxCell>
        <mxCell id="-Ma8yGiCkcmnBZ08pdYG-134" value="" style="shape=partialRectangle;connectable=0;fillColor=none;top=0;left=0;bottom=0;right=0;editable=1;overflow=hidden;whiteSpace=wrap;html=1;" parent="-Ma8yGiCkcmnBZ08pdYG-133" vertex="1">
          <mxGeometry width="30" height="30" as="geometry">
            <mxRectangle width="30" height="30" as="alternateBounds" />
          </mxGeometry>
        </mxCell>
        <mxCell id="-Ma8yGiCkcmnBZ08pdYG-135" value="num_entradas_vendidas" style="shape=partialRectangle;connectable=0;fillColor=none;top=0;left=0;bottom=0;right=0;align=left;spacingLeft=6;overflow=hidden;whiteSpace=wrap;html=1;" parent="-Ma8yGiCkcmnBZ08pdYG-133" vertex="1">
          <mxGeometry x="30" width="150" height="30" as="geometry">
            <mxRectangle width="150" height="30" as="alternateBounds" />
          </mxGeometry>
        </mxCell>
        <mxCell id="-Ma8yGiCkcmnBZ08pdYG-136" value="" style="shape=tableRow;horizontal=0;startSize=0;swimlaneHead=0;swimlaneBody=0;fillColor=none;collapsible=0;dropTarget=0;points=[[0,0.5],[1,0.5]];portConstraint=eastwest;top=0;left=0;right=0;bottom=0;" parent="-Ma8yGiCkcmnBZ08pdYG-129" vertex="1">
          <mxGeometry y="120" width="180" height="30" as="geometry" />
        </mxCell>
        <mxCell id="-Ma8yGiCkcmnBZ08pdYG-137" value="" style="shape=partialRectangle;connectable=0;fillColor=none;top=0;left=0;bottom=0;right=0;editable=1;overflow=hidden;whiteSpace=wrap;html=1;" parent="-Ma8yGiCkcmnBZ08pdYG-136" vertex="1">
          <mxGeometry width="30" height="30" as="geometry">
            <mxRectangle width="30" height="30" as="alternateBounds" />
          </mxGeometry>
        </mxCell>
        <mxCell id="-Ma8yGiCkcmnBZ08pdYG-138" value="capacidad" style="shape=partialRectangle;connectable=0;fillColor=none;top=0;left=0;bottom=0;right=0;align=left;spacingLeft=6;overflow=hidden;whiteSpace=wrap;html=1;" parent="-Ma8yGiCkcmnBZ08pdYG-136" vertex="1">
          <mxGeometry x="30" width="150" height="30" as="geometry">
            <mxRectangle width="150" height="30" as="alternateBounds" />
          </mxGeometry>
        </mxCell>
        <mxCell id="-Ma8yGiCkcmnBZ08pdYG-139" value="" style="shape=tableRow;horizontal=0;startSize=0;swimlaneHead=0;swimlaneBody=0;fillColor=none;collapsible=0;dropTarget=0;points=[[0,0.5],[1,0.5]];portConstraint=eastwest;top=0;left=0;right=0;bottom=0;" parent="-Ma8yGiCkcmnBZ08pdYG-129" vertex="1">
          <mxGeometry y="150" width="180" height="30" as="geometry" />
        </mxCell>
        <mxCell id="-Ma8yGiCkcmnBZ08pdYG-140" value="" style="shape=partialRectangle;connectable=0;fillColor=none;top=0;left=0;bottom=0;right=0;editable=1;overflow=hidden;whiteSpace=wrap;html=1;" parent="-Ma8yGiCkcmnBZ08pdYG-139" vertex="1">
          <mxGeometry width="30" height="30" as="geometry">
            <mxRectangle width="30" height="30" as="alternateBounds" />
          </mxGeometry>
        </mxCell>
        <mxCell id="-Ma8yGiCkcmnBZ08pdYG-141" value="medios" style="shape=partialRectangle;connectable=0;fillColor=none;top=0;left=0;bottom=0;right=0;align=left;spacingLeft=6;overflow=hidden;whiteSpace=wrap;html=1;" parent="-Ma8yGiCkcmnBZ08pdYG-139" vertex="1">
          <mxGeometry x="30" width="150" height="30" as="geometry">
            <mxRectangle width="150" height="30" as="alternateBounds" />
          </mxGeometry>
        </mxCell>
        <mxCell id="-Ma8yGiCkcmnBZ08pdYG-146" value="" style="endArrow=classic;html=1;rounded=0;exitX=1;exitY=0.5;exitDx=0;exitDy=0;entryX=0;entryY=0.5;entryDx=0;entryDy=0;" parent="1" source="-Ma8yGiCkcmnBZ08pdYG-130" target="-Ma8yGiCkcmnBZ08pdYG-143" edge="1">
          <mxGeometry width="50" height="50" relative="1" as="geometry">
            <mxPoint x="593" y="214" as="sourcePoint" />
            <mxPoint x="643" y="164" as="targetPoint" />
            <Array as="points">
              <mxPoint x="450" y="97" />
              <mxPoint x="450" y="307" />
            </Array>
          </mxGeometry>
        </mxCell>
        <mxCell id="-Ma8yGiCkcmnBZ08pdYG-152" value="" style="endArrow=classic;html=1;rounded=0;exitX=0;exitY=0.5;exitDx=0;exitDy=0;entryX=0;entryY=0.5;entryDx=0;entryDy=0;" parent="1" source="-Ma8yGiCkcmnBZ08pdYG-89" target="-Ma8yGiCkcmnBZ08pdYG-149" edge="1">
          <mxGeometry width="50" height="50" relative="1" as="geometry">
            <mxPoint x="306" y="86" as="sourcePoint" />
            <mxPoint x="356" y="36" as="targetPoint" />
            <Array as="points">
              <mxPoint x="120" y="-63" />
              <mxPoint x="120" y="127" />
            </Array>
          </mxGeometry>
        </mxCell>
        <mxCell id="ocaEMfxrrOdYNIPUFn0S-1" value="" style="endArrow=none;html=1;rounded=0;exitX=0.75;exitY=0;exitDx=0;exitDy=0;entryX=0.25;entryY=0;entryDx=0;entryDy=0;" parent="1" edge="1">
          <mxGeometry width="50" height="50" relative="1" as="geometry">
            <mxPoint x="444.0000000000002" y="628" as="sourcePoint" />
            <mxPoint x="633.9999999999998" y="628" as="targetPoint" />
            <Array as="points">
              <mxPoint x="539" y="668" />
            </Array>
          </mxGeometry>
        </mxCell>
        <mxCell id="31EG039CmQOB9sYmkPx5-1" value="" style="endArrow=none;html=1;rounded=0;entryX=0.5;entryY=1;entryDx=0;entryDy=0;exitX=1;exitY=0;exitDx=0;exitDy=0;" edge="1" parent="1" source="5cUxGQwEymCMh7XVlLyC-89">
          <mxGeometry width="50" height="50" relative="1" as="geometry">
            <mxPoint x="1029" y="558" as="sourcePoint" />
            <mxPoint x="1029" y="498" as="targetPoint" />
          </mxGeometry>
        </mxCell>
      </root>
    </mxGraphModel>
  </diagram>
</mxfile>
